<svg xmlns="http://www.w3.org/2000/svg" viewBox="0 0 1600 420">
  <!-- みどりの もり（かたち）。まるい木で「かたち」のやさしさ -->
  <g fill="#ffffff" opacity=".5">
    <g><ellipse cx="320" cy="74" rx="86" ry="28"/><ellipse cx="388" cy="56" rx="52" ry="21"/></g>
    <g><ellipse cx="1260" cy="90" rx="94" ry="30"/><ellipse cx="1338" cy="70" rx="56" ry="22"/></g>
  </g>
  <path d="M0 298 Q 280 214 600 268 T 1120 250 T 1600 282 L1600 420 0 420 Z" fill="#bfe8c9" opacity=".9"/>
  <g opacity=".95">
    <rect x="234" y="222" width="13" height="48" rx="6" fill="#8a6a44"/>
    <circle cx="240" cy="206" r="40" fill="#8fd6a4"/>
    <rect x="694" y="238" width="12" height="40" rx="5" fill="#8a6a44"/>
    <circle cx="700" cy="226" r="32" fill="#a3dcb4"/>
    <rect x="1393" y="218" width="14" height="52" rx="6" fill="#8a6a44"/>
    <circle cx="1400" cy="200" r="44" fill="#8fd6a4"/>
  </g>
  <path d="M0 358 Q 420 298 820 342 T 1600 330 L1600 420 0 420 Z" fill="#a3dcb4"/>
  <g fill="#ffd23f">
    <circle cx="320" cy="384" r="6"/><circle cx="980" cy="378" r="6"/><circle cx="1500" cy="388" r="6"/>
  </g>
  <g fill="#ffadc6">
    <circle cx="560" cy="390" r="6"/><circle cx="1180" cy="386" r="6"/>
  </g>
</svg>
