<svg xmlns="http://www.w3.org/2000/svg" viewBox="0 0 1600 420">
  <!-- そらいろの おか（きまり）。雲としゃぼんで「すいり」の軽やかさ -->
  <g fill="#ffffff" opacity=".75">
    <g><ellipse cx="280" cy="86" rx="100" ry="32"/><ellipse cx="360" cy="64" rx="62" ry="25"/><ellipse cx="208" cy="66" rx="54" ry="21"/></g>
    <g><ellipse cx="1080" cy="70" rx="88" ry="28"/><ellipse cx="1152" cy="52" rx="52" ry="20"/></g>
    <g><ellipse cx="1480" cy="140" rx="76" ry="24"/><ellipse cx="1540" cy="124" rx="44" ry="18"/></g>
  </g>
  <g fill="none" stroke="#ffffff" stroke-width="3" opacity=".5">
    <circle cx="640" cy="120" r="14"/><circle cx="700" cy="80" r="9"/><circle cx="590" cy="70" r="7"/>
  </g>
  <path d="M0 302 Q 280 222 600 272 T 1120 256 T 1600 286 L1600 420 0 420 Z" fill="#c4e7f5" opacity=".9"/>
  <g opacity=".9">
    <rect x="474" y="240" width="12" height="38" rx="5" fill="#4f8aa6"/>
    <circle cx="480" cy="228" r="32" fill="#9fd6eb"/>
    <rect x="1283" y="232" width="13" height="40" rx="6" fill="#4f8aa6"/>
    <circle cx="1290" cy="218" r="36" fill="#9fd6eb"/>
  </g>
  <path d="M0 358 Q 400 300 800 344 T 1600 334 L1600 420 0 420 Z" fill="#aadcef"/>
</svg>
