<svg xmlns="http://www.w3.org/2000/svg" viewBox="0 0 1600 420">
  <!-- むらさきの ゆうぐれの おか（まねっこ）。星と月で「きおく」の静けさ -->
  <g fill="#fff6d9">
    <circle cx="180" cy="60" r="4"/><circle cx="420" cy="110" r="3"/><circle cx="700" cy="50" r="4"/>
    <circle cx="980" cy="100" r="3"/><circle cx="1240" cy="56" r="4"/><circle cx="1500" cy="120" r="3"/>
    <path d="M560 150 l5 12 12 5 -12 5 -5 12 -5 -12 -12 -5 12 -5 z" opacity=".9"/>
    <path d="M1380 160 l4 10 10 4 -10 4 -4 10 -4 -10 -10 -4 10 -4 z" opacity=".8"/>
  </g>
  <path d="M1310 60 a46 46 0 1 0 40 68 a38 38 0 1 1 -40 -68 z" fill="#ffe9a8" opacity=".85"/>
  <path d="M0 296 Q 300 212 620 268 T 1140 252 T 1600 280 L1600 420 0 420 Z" fill="#d6c4f7" opacity=".85"/>
  <g opacity=".9">
    <rect x="354" y="232" width="12" height="40" rx="5" fill="#8a6bbf"/>
    <path d="M360 168 L394 246 H326 Z" fill="#b79bef"/>
    <rect x="1233" y="222" width="13" height="44" rx="6" fill="#8a6bbf"/>
    <path d="M1240 152 L1278 240 H1202 Z" fill="#b79bef"/>
  </g>
  <path d="M0 356 Q 420 296 820 340 T 1600 330 L1600 420 0 420 Z" fill="#c2a8f0"/>
</svg>
