<svg xmlns="http://www.w3.org/2000/svg" viewBox="0 0 1600 420">
  <!-- はちみつ色の草原（プログラミング）。透明背景・下端アンカーで敷く -->
  <g fill="#ffffff" opacity=".55">
    <g><ellipse cx="240" cy="84" rx="92" ry="30"/><ellipse cx="312" cy="64" rx="60" ry="24"/><ellipse cx="178" cy="66" rx="52" ry="20"/></g>
    <g><ellipse cx="1180" cy="64" rx="100" ry="30"/><ellipse cx="1262" cy="46" rx="58" ry="22"/></g>
  </g>
  <circle cx="1470" cy="74" r="84" fill="#ffd98a" opacity=".22"/>
  <circle cx="1470" cy="74" r="54" fill="#ffd98a" opacity=".7"/>
  <path d="M0 300 Q 260 204 560 268 T 1100 250 T 1600 282 L1600 420 0 420 Z" fill="#cdea9e" opacity=".85"/>
  <g opacity=".95">
    <rect x="424" y="232" width="12" height="42" rx="5" fill="#b98a4e"/>
    <circle cx="430" cy="222" r="34" fill="#aedd7d"/>
    <rect x="1173" y="222" width="14" height="46" rx="6" fill="#b98a4e"/>
    <circle cx="1180" cy="210" r="40" fill="#aedd7d"/>
  </g>
  <path d="M0 360 Q 400 292 800 342 T 1600 332 L1600 420 0 420 Z" fill="#b9df87"/>
  <g fill="#ffadc6">
    <circle cx="220" cy="376" r="7"/><circle cx="640" cy="386" r="6"/><circle cx="1040" cy="376" r="7"/><circle cx="1420" cy="384" r="6"/>
  </g>
  <g fill="#ffd23f">
    <circle cx="420" cy="392" r="6"/><circle cx="880" cy="382" r="6"/><circle cx="1240" cy="394" r="6"/>
  </g>
</svg>
